<?xml version="1.0" encoding="UTF-8"?>
<svg width="71px" height="94px" viewBox="0 0 71 94" version="1.1" xmlns="http://www.w3.org/2000/svg" xmlns:xlink="http://www.w3.org/1999/xlink">
    <title>Group 14</title>
    <defs>
        <polygon id="path-1" points="33.7135725 49.1835493 24.6687717 70.7798063 38.0456667 66.8761931 44.8966917 79.1071642 53.4680496 57.2933947"></polygon>
        <filter x="-24.3%" y="-16.7%" width="148.6%" height="146.8%" filterUnits="objectBoundingBox" id="filter-2">
            <feOffset dx="0" dy="2" in="SourceAlpha" result="shadowOffsetOuter1"></feOffset>
            <feGaussianBlur stdDeviation="2" in="shadowOffsetOuter1" result="shadowBlurOuter1"></feGaussianBlur>
            <feColorMatrix values="0 0 0 0 0   0 0 0 0 0   0 0 0 0 0  0 0 0 0.5 0" type="matrix" in="shadowBlurOuter1"></feColorMatrix>
        </filter>
        <polygon id="path-3" points="10.9698921 50.4578995 1.9250913 72.0541565 15.3019863 68.1505433 22.1530113 80.3815144 32.2561717 56.2962963"></polygon>
        <filter x="-23.1%" y="-16.7%" width="146.2%" height="146.8%" filterUnits="objectBoundingBox" id="filter-4">
            <feOffset dx="0" dy="2" in="SourceAlpha" result="shadowOffsetOuter1"></feOffset>
            <feGaussianBlur stdDeviation="2" in="shadowOffsetOuter1" result="shadowBlurOuter1"></feGaussianBlur>
            <feColorMatrix values="0 0 0 0 0   0 0 0 0 0   0 0 0 0 0  0 0 0 0.5 0" type="matrix" in="shadowBlurOuter1"></feColorMatrix>
        </filter>
        <linearGradient x1="77.4091231%" y1="8.63205611%" x2="10.520687%" y2="79.7004178%" id="linearGradient-5">
            <stop stop-color="#D4B78C" offset="0%"></stop>
            <stop stop-color="#BA6A52" offset="100%"></stop>
        </linearGradient>
        <path d="M28.3950617,0 C44.0772213,0 56.7901235,12.7129022 56.7901235,28.3950617 C56.7901235,44.0772213 44.0772213,56.7901235 28.3950617,56.7901235 C12.7129022,56.7901235 3.0908609e-13,44.0772213 3.0908609e-13,28.3950617 C3.0908609e-13,12.7129022 12.7129022,0 28.3950617,0 Z M28.3950617,3.7037037 C14.7584012,3.7037037 3.7037037,14.7584012 3.7037037,28.3950617 C3.7037037,42.0317222 14.7584012,53.0864198 28.3950617,53.0864198 C42.0317222,53.0864198 53.0864198,42.0317222 53.0864198,28.3950617 C53.0864198,14.7584012 42.0317222,3.7037037 28.3950617,3.7037037 Z" id="path-6"></path>
        <filter x="-12.3%" y="-8.8%" width="124.7%" height="124.7%" filterUnits="objectBoundingBox" id="filter-7">
            <feOffset dx="0" dy="2" in="SourceAlpha" result="shadowOffsetOuter1"></feOffset>
            <feGaussianBlur stdDeviation="2" in="shadowOffsetOuter1" result="shadowBlurOuter1"></feGaussianBlur>
            <feColorMatrix values="0 0 0 0 0   0 0 0 0 0   0 0 0 0 0  0 0 0 0.5 0" type="matrix" in="shadowBlurOuter1"></feColorMatrix>
        </filter>
    </defs>
    <g id="Page-1" stroke="none" stroke-width="1" fill="none" fill-rule="evenodd">
        <g id="Leaderboard" transform="translate(-267.000000, -168.000000)">
            <g id="Group-18" transform="translate(19.000000, 140.000000)">
                <g id="Group-17" transform="translate(251.000000, 30.000000)">
                    <g id="Group-14" transform="translate(1.000000, 0.000000)">
                        <g id="Group-13-Copy-3">
                            <g id="Path-2-Copy" transform="translate(39.068411, 64.145357) rotate(-45.000000) translate(-39.068411, -64.145357) ">
                                <use fill="black" fill-opacity="1" filter="url(#filter-2)" xlink:href="#path-1"></use>
                                <use fill="#BD0000" fill-rule="evenodd" xlink:href="#path-1"></use>
                            </g>
                            <g id="Path-2">
                                <use fill="black" fill-opacity="1" filter="url(#filter-4)" xlink:href="#path-3"></use>
                                <use fill="#BD0000" fill-rule="evenodd" xlink:href="#path-3"></use>
                            </g>
                            <g id="Combined-Shape">
                                <use fill="black" fill-opacity="1" filter="url(#filter-7)" xlink:href="#path-6"></use>
                                <use fill="url(#linearGradient-5)" fill-rule="evenodd" xlink:href="#path-6"></use>
                            </g>
                        </g>
                        <path d="M27.923,36.22 C29.0963333,36.22 30.1413333,36.0256667 31.058,35.637 C31.9746667,35.2483333 32.6933333,34.6946667 33.214,33.976 C33.7346667,33.2573333 33.995,32.414 33.995,31.446 C33.995,30.082 33.5806667,29.0333333 32.752,28.3 C31.9233333,27.5666667 30.805,27.1413333 29.397,27.024 L29.397,27.024 L29.133,27.002 L32.917,23.108 C33.1076667,22.9466667 33.203,22.7413333 33.203,22.492 L33.203,22.492 L33.203,21.15 C33.203,20.9886667 33.1516667,20.8566667 33.049,20.754 C32.9463333,20.6513333 32.8143333,20.6 32.653,20.6 L32.653,20.6 L23.193,20.6 C23.0316667,20.6 22.8996667,20.6513333 22.797,20.754 C22.6943333,20.8566667 22.643,20.9886667 22.643,21.15 L22.643,21.15 L22.643,22.624 C22.643,22.7706667 22.6943333,22.8953333 22.797,22.998 C22.8996667,23.1006667 23.0316667,23.152 23.193,23.152 L23.193,23.152 L29.463,23.152 L25.547,26.98 C25.3563333,27.1413333 25.261,27.3613333 25.261,27.64 L25.261,27.64 L25.261,28.586 C25.261,28.7326667 25.3123333,28.8573333 25.415,28.96 C25.5176667,29.0626667 25.6423333,29.114 25.789,29.114 L25.789,29.114 L28.055,29.114 C28.9496667,29.114 29.628,29.2863333 30.09,29.631 C30.552,29.9756667 30.783,30.5293333 30.783,31.292 C30.783,32.0546667 30.53,32.6413333 30.024,33.052 C29.518,33.4626667 28.8176667,33.668 27.923,33.668 C26.3096667,33.668 25.3416667,33.1473333 25.019,32.106 C24.9016667,31.8126667 24.6816667,31.666 24.359,31.666 L24.359,31.666 L22.335,31.666 C22.203,31.666 22.093,31.71 22.005,31.798 C21.917,31.886 21.873,31.996 21.873,32.128 C21.9023333,32.788 22.1406667,33.4296667 22.588,34.053 C23.0353333,34.6763333 23.71,35.1933333 24.612,35.604 C25.514,36.0146667 26.6176667,36.22 27.923,36.22 Z" id="3" fill="#CB9C78" fill-rule="nonzero"></path>
                    </g>
                </g>
            </g>
        </g>
    </g>
</svg>